<?xml version="1.0" standalone="no"?>
<!DOCTYPE svg PUBLIC "-//W3C//DTD SVG 20010904//EN"
 "http://www.w3.org/TR/2001/REC-SVG-20010904/DTD/svg10.dtd">
<svg version="1.0" xmlns="http://www.w3.org/2000/svg"
 width="260.000000pt" height="260.000000pt" viewBox="0 0 260.000000 260.000000"
 preserveAspectRatio="xMidYMid meet">
<metadata>
Created by potrace 1.11, written by Peter Selinger 2001-2013
</metadata>
<g transform="translate(0.000000,260.000000) scale(0.100000,-0.100000)"
fill="#000000" stroke="none">
<path d="M0 1300 l0 -1300 1300 0 1300 0 0 1300 0 1300 -1300 0 -1300 0 0
-1300z m1325 755 c31 -30 31 -53 2 -96 -27 -41 -84 -63 -122 -49 -59 22 -56
107 4 147 44 30 85 29 116 -2z m-55 -382 c0 -22 -183 -865 -197 -908 -58 -180
-174 -288 -326 -302 -78 -7 -140 9 -166 44 -28 34 -26 49 8 84 45 45 78 40
135 -22 42 -46 50 -51 78 -45 37 7 55 21 73 56 16 31 205 887 205 929 0 39
-23 51 -79 44 -84 -11 -38 18 103 68 76 26 141 51 144 54 8 8 22 6 22 -2z
m440 -10 c0 -10 -4 -34 -9 -53 -26 -100 -28 -98 44 -32 104 95 188 125 243 86
32 -22 31 -92 -3 -128 -33 -36 -76 -35 -125 4 -37 29 -40 30 -72 17 -18 -8
-53 -36 -78 -63 l-46 -49 -52 -245 c-29 -138 -49 -255 -46 -268 8 -27 52 -52
94 -52 20 0 30 -5 30 -15 0 -13 -31 -15 -215 -15 -169 0 -213 3 -210 13 3 7
29 18 58 25 29 6 60 21 69 33 23 27 28 46 90 349 59 291 59 290 -18 290 -24 0
-44 4 -44 9 0 4 55 27 123 51 67 23 129 46 137 51 23 13 30 11 30 -8z"/>
</g>
</svg>
